<?xml version="1.0" standalone="no"?>
<!DOCTYPE svg PUBLIC "-//W3C//DTD SVG 20010904//EN"
 "http://www.w3.org/TR/2001/REC-SVG-20010904/DTD/svg10.dtd">
<svg version="1.0" xmlns="http://www.w3.org/2000/svg"
 width="512.000000pt" height="512.000000pt" viewBox="0 0 512.000000 512.000000"
 preserveAspectRatio="xMidYMid meet">
<metadata>
Created by potrace 1.14, written by Peter Selinger 2001-2017
</metadata>
<g transform="translate(0.000000,512.000000) scale(0.100000,-0.100000)"
fill="#000000" stroke="none">
<path d="M1387 4014 c-1 -1 -33 -4 -72 -8 -38 -3 -81 -8 -95 -11 -14 -3 -41
-7 -60 -10 -72 -10 -103 -34 -112 -89 -2 -12 -23 -26 -67 -42 -64 -23 -65 -23
-89 -3 -34 27 -64 24 -130 -13 -268 -148 -473 -361 -607 -633 -60 -121 -116
-283 -130 -372 -3 -21 -8 -50 -11 -63 -4 -14 -7 -98 -9 -187 -4 -269 43 -469
165 -702 249 -473 747 -774 1279 -773 108 0 138 2 246 18 133 20 270 65 408
135 81 41 210 121 238 148 9 9 33 30 54 46 21 17 67 59 101 94 l63 64 77 -77
c316 -315 751 -469 1184 -420 41 4 80 9 85 9 46 5 128 29 145 43 12 9 22 30
23 46 2 26 9 31 70 53 l67 24 27 -20 c35 -28 51 -27 124 13 356 193 628 551
720 946 28 120 33 167 34 325 0 158 -7 224 -34 340 -118 488 -482 886 -956
1043 -228 76 -473 96 -698 57 -15 -3 -37 -7 -49 -9 -103 -18 -285 -83 -387
-139 -136 -73 -280 -183 -383 -291 l-47 -49 -78 78 c-238 239 -553 389 -883
421 -57 5 -209 11 -213 8z m179 -1285 c18 -11 48 -38 67 -62 20 -23 47 -55 61
-71 32 -36 32 -39 1 -72 -14 -15 -44 -49 -66 -75 -101 -119 -261 -120 -344 -1
-26 38 -30 52 -30 112 0 60 4 74 30 111 66 94 183 118 281 58z m2199 8 c21
-12 53 -42 70 -65 26 -38 30 -52 30 -110 0 -58 -4 -73 -30 -112 -58 -85 -162
-115 -255 -73 -40 18 -119 96 -168 165 -16 22 -1 45 90 140 83 86 171 104 263
55z"/>
</g>
</svg>
